# xmcd CD database file
#
# Track frame offsets:
#	150
#	11127
#	26269
#	39311
#	51240
#	65947
#	80386
#	95413
#	107440
#	120007
#	131877
#	144642
#	156097
#	168221
#	184743
#	197495
#	211692
#	222516
#	235668
#
# Disc length: 3294 seconds
#
# Revision: 0
# Processed by: cddbd v1.5.2PL0 Copyright (c) Steve Scherf et al.
# Submitted via: CDex 1.70beta2
#
DISCID=fb0cdc13
DTITLE=Nat King Cole - The Capital Collector's Series
DYEAR=1990
DGENRE=Jazz
TTITLE0=Straighten Up and Fly Right
TTITLE1=(Get Your Kicks On) Route 66
TTITLE2=(I Love Your For) Sentimental Reasons
TTITLE3=Nature Boy
TTITLE4=Mona Lisa
TTITLE5=Too Young
TTITLE6=Unforgettable
TTITLE7=Walkin' My Baby Back Home
TTITLE8=Pretend
TTITLE9=Answer Me, My Love
TTITLE10=Darling, Je Vous Aime Beaucoup
TTITLE11=A Blossom Fell
TTITLE12=Send For Me
TTITLE13=Non Dementicar (Don't Forget)
TTITLE14=Ramblin' Rose
TTITLE15=Dear Lonely Hearts
TTITLE16=All Over The World
TTITLE17=Those lazy-Hazy-Crazy Day Of Summer
TTITLE18=L-O-V-E
EXTD=YEAR: 1990
EXTT0=
EXTT1=
EXTT2=
EXTT3=
EXTT4=
EXTT5=
EXTT6=
EXTT7=
EXTT8=
EXTT9=
EXTT10=
EXTT11=
EXTT12=
EXTT13=
EXTT14=
EXTT15=
EXTT16=
EXTT17=
EXTT18=
PLAYORDER=
